<svg width="186" height="35" viewBox="0 0 186 35" fill="none" xmlns="http://www.w3.org/2000/svg">
<g clip-path="url(#clip0_297_23196)">
<path fill-rule="evenodd" clip-rule="evenodd" d="M3.43263 15.0067L0 20.4534L8.71908 20.4837L12.1699 15.0067L2.71237 0L3.43263 15.0067Z" fill="#00FFF0"/>
<path fill-rule="evenodd" clip-rule="evenodd" d="M4.19582 30.015H21.6294L31.0885 15.0067L21.6294 0H6.49639L10.8651 6.93167H17.2608L22.3512 15.0067L17.2608 23.0803H0.0201416L4.19582 30.015Z" fill="white"/>
<path d="M43.5225 26.6304V3.57593H54.0072C56.5135 3.57593 58.7218 4.05322 60.6324 5.00782C62.4742 5.90042 64.0275 7.29271 65.115 9.0256C66.1909 10.7465 66.7293 12.7711 66.7303 15.0994C66.7313 17.4276 66.1929 19.4522 65.115 21.1731C64.0276 22.9087 62.473 24.3032 60.6294 25.197C58.7178 26.1526 56.5094 26.6304 54.0042 26.6304H43.5225ZM48.894 22.2831H53.7398C55.2776 22.2831 56.6122 21.9921 57.7438 21.41C58.8494 20.8527 59.7664 19.9824 60.3802 18.9076C61.0062 17.8204 61.3192 16.552 61.3192 15.1024C61.3192 13.6325 61.0062 12.3591 60.3802 11.282C59.7621 10.2142 58.8452 9.35022 57.7423 8.79632C56.6107 8.21526 55.276 7.92423 53.7383 7.92322H48.894V22.2831Z" fill="white"/>
<path d="M76.0525 22.3484V17.0065H86.7653V12.8308H76.0525L70.7463 12.8612V26.6304H88.61V22.3484H76.0525Z" fill="white"/>
<path d="M76.0526 7.85641H88.1815V3.57593H70.7463V7.85641H76.0526Z" fill="white"/>
<path d="M98.4429 17.6913L101.462 21.7789L98.1603 26.2598L97.8883 26.6303H91.8557L92.9239 25.1802L98.4429 17.6913Z" fill="#00FFF0"/>
<path d="M115.278 26.6304H109.247L108.975 26.2599L105.892 22.0766L103.57 18.9259L103.567 18.9304L103.564 18.9259L100.544 14.8398L100.552 14.8306L93.474 5.22349L92.4058 3.7749H98.4353L98.7088 4.14388L103.568 10.7385L108.426 4.14388L108.7 3.7749H114.729L113.661 5.22501L106.583 14.8306L114.21 25.1803L115.278 26.6304Z" fill="white"/>
<path d="M119.751 26.6304V3.57593H124.169L137.781 20.1755H135.638V3.57593H140.911V26.6304H136.495L122.883 10.0308H125.026V26.6304H119.751Z" fill="white"/>
<path d="M151.689 7.85641H163.818V3.57593H146.383V7.85641H151.689Z" fill="white"/>
<path d="M151.689 22.3484V17.0065H162.4V12.8308H151.689L146.383 12.8612V26.6304H164.246V22.3484H151.689Z" fill="white"/>
<path d="M173.277 26.6304V7.92322H165.895V3.57593H186V7.92322H178.616V26.6304H173.277Z" fill="white"/>
<path d="M112.157 31.2889V32.077H108.814V31.2889H112.157ZM110.064 35V32.6267H110.853V35H110.064Z" fill="white"/>
<path d="M119.102 31.2889V32.077H115.788V31.2889H119.102ZM116.572 34.2119H119.102V35H115.788V32.6221H116.577H118.776V33.4102H116.572V34.2119Z" fill="white"/>
<path d="M126.302 33.521L126.24 33.7138C126.109 34.1128 125.848 34.4562 125.498 34.6882C125.148 34.9202 124.73 35.0273 124.311 34.9921C123.893 34.957 123.498 34.7817 123.192 34.4945C122.885 34.2074 122.685 33.8253 122.623 33.4102C122.61 33.3197 122.603 33.2283 122.603 33.1368C122.605 32.6439 122.801 32.1716 123.151 31.8234C123.5 31.4753 123.973 31.2798 124.466 31.2798C124.875 31.2787 125.272 31.4128 125.595 31.6609C125.913 31.9035 126.145 32.2414 126.256 32.6251L126.311 32.8134H125.494L125.456 32.7238C125.366 32.5127 125.211 32.3357 125.014 32.2189C124.816 32.1021 124.587 32.0515 124.358 32.0746C124.13 32.0977 123.915 32.1932 123.745 32.3472C123.575 32.5012 123.459 32.7055 123.413 32.9303C123.399 33.0003 123.392 33.0715 123.392 33.1429C123.392 33.2169 123.4 33.2907 123.415 33.3631C123.461 33.5825 123.575 33.782 123.74 33.9335C123.906 34.085 124.114 34.181 124.337 34.208C124.56 34.2349 124.785 34.1915 124.982 34.0838C125.179 33.9762 125.337 33.8096 125.434 33.6076L125.475 33.5256L126.302 33.521Z" fill="white"/>
<path d="M133.228 31.295V35H132.438V33.4209H130.728V35H129.94V31.295H130.728V32.6328H132.438V31.295H133.228Z" fill="white"/>
<path d="M139.871 31.2798V35H139.683L139.125 34.4442L138.191 33.5089L137.65 32.9698L136.861 32.1818V31.2616H137.062L139.087 33.2857V31.2798H139.871ZM136.861 32.9577L137.65 33.7458V34.9939H136.861V32.9577Z" fill="white"/>
<path d="M147.135 33.1506C147.135 33.5164 147.026 33.874 146.823 34.1781C146.62 34.4823 146.33 34.7193 145.992 34.8593C145.654 34.9993 145.282 35.0359 144.923 34.9645C144.564 34.8932 144.234 34.717 143.975 34.4584C143.716 34.1997 143.54 33.8702 143.469 33.5114C143.397 33.1527 143.434 32.7808 143.574 32.4428C143.714 32.1049 143.951 31.8161 144.256 31.6128C144.56 31.4096 144.918 31.3011 145.284 31.3011C145.775 31.3015 146.245 31.4965 146.592 31.8433C146.939 32.19 147.134 32.6602 147.135 33.1506ZM145.284 32.0725C145.071 32.0725 144.862 32.1357 144.685 32.2542C144.507 32.3727 144.369 32.541 144.287 32.738C144.206 32.935 144.184 33.1518 144.226 33.3609C144.268 33.5701 144.37 33.7622 144.521 33.9129C144.672 34.0637 144.864 34.1664 145.074 34.208C145.283 34.2496 145.5 34.2282 145.697 34.1466C145.894 34.065 146.063 33.9269 146.181 33.7496C146.3 33.5723 146.363 33.3638 146.363 33.1506C146.362 32.8648 146.249 32.5908 146.046 32.3887C145.844 32.1866 145.57 32.0729 145.284 32.0725Z" fill="white"/>
<path d="M153.721 34.2119V35H150.765V31.2616H151.554V34.2119H153.721Z" fill="white"/>
<path d="M160.555 33.1506C160.555 33.5164 160.447 33.874 160.243 34.1781C160.04 34.4823 159.751 34.7193 159.413 34.8593C159.075 34.9993 158.703 35.0359 158.343 34.9645C157.984 34.8932 157.655 34.717 157.396 34.4584C157.137 34.1997 156.961 33.8702 156.889 33.5114C156.818 33.1527 156.855 32.7808 156.995 32.4428C157.135 32.1049 157.372 31.8161 157.676 31.6128C157.981 31.4096 158.339 31.3011 158.705 31.3011C159.195 31.3015 159.666 31.4965 160.013 31.8433C160.36 32.19 160.555 32.6602 160.555 33.1506ZM158.705 32.0725C158.491 32.0725 158.283 32.1357 158.105 32.2542C157.928 32.3727 157.789 32.541 157.708 32.738C157.626 32.935 157.605 33.1518 157.646 33.3609C157.688 33.5701 157.791 33.7622 157.942 33.9129C158.093 34.0637 158.285 34.1664 158.494 34.208C158.703 34.2496 158.92 34.2282 159.117 34.1466C159.315 34.065 159.483 33.9269 159.602 33.7496C159.72 33.5723 159.783 33.3638 159.783 33.1506C159.783 32.8648 159.669 32.5908 159.467 32.3887C159.265 32.1866 158.991 32.0729 158.705 32.0725Z" fill="white"/>
<path d="M167.519 32.6327V33.4223V34.9999H165.896C165.4 35.0027 164.923 34.812 164.565 34.4685C164.387 34.2983 164.245 34.0938 164.148 33.8673C164.051 33.6407 164.001 33.3969 164.001 33.1505C164.001 32.9041 164.051 32.6602 164.148 32.4337C164.245 32.2072 164.387 32.0026 164.565 31.8325C164.923 31.4875 165.401 31.2957 165.898 31.298H167.515V32.0876H165.734C165.452 32.0876 165.181 32.1996 164.982 32.3989C164.782 32.5982 164.67 32.8686 164.67 33.1505C164.67 33.4324 164.782 33.7027 164.982 33.9021C165.181 34.1014 165.452 34.2134 165.734 34.2134H166.732V33.4238H165.811L165.772 33.3373L165.544 32.8453L165.447 32.6342L167.519 32.6327Z" fill="white"/>
<path d="M172.058 31.2798V35H171.27V31.2798H172.058Z" fill="white"/>
<path d="M179.001 31.2889V32.077H175.681V31.2889H179.001ZM176.469 34.2119H179.001V35H175.681V32.6221H176.469H178.67V33.4102H176.469V34.2119Z" fill="white"/>
<path d="M185.55 33.3161C185.648 33.4873 185.699 33.6813 185.699 33.8785C185.698 34.0757 185.646 34.2694 185.546 34.4399C185.447 34.6105 185.305 34.752 185.134 34.8503C184.963 34.9486 184.769 35.0003 184.571 35.0001H183.455C183.219 35 182.99 34.923 182.803 34.7807C182.615 34.6383 182.48 34.4386 182.417 34.212C182.392 34.1184 182.379 34.0219 182.379 33.925H183.151C183.151 33.9882 183.171 34.0499 183.207 34.1013C183.244 34.1527 183.296 34.1914 183.356 34.212H184.571C184.661 34.212 184.747 34.1765 184.81 34.1133C184.873 34.05 184.909 33.9643 184.909 33.8749C184.909 33.7855 184.873 33.6997 184.81 33.6365C184.747 33.5733 184.661 33.5378 184.571 33.5378H183.508C183.353 33.5375 183.2 33.5056 183.058 33.4439C182.916 33.3823 182.788 33.2923 182.683 33.1794C182.625 33.1159 182.574 33.0461 182.531 32.9714C182.433 32.8002 182.381 32.6063 182.382 32.409C182.383 32.2118 182.435 32.0182 182.534 31.8476C182.633 31.677 182.776 31.5355 182.947 31.4372C183.118 31.3389 183.312 31.2873 183.509 31.2875H184.646C184.881 31.2873 185.11 31.3643 185.297 31.5067C185.484 31.6491 185.62 31.8489 185.682 32.0755C185.709 32.1689 185.722 32.2655 185.722 32.3625H184.948C184.948 32.2995 184.929 32.238 184.892 32.1866C184.856 32.1352 184.804 32.0963 184.745 32.0755H183.509C183.42 32.0755 183.334 32.1111 183.271 32.1743C183.208 32.2375 183.172 32.3232 183.172 32.4126C183.172 32.502 183.208 32.5878 183.271 32.651C183.334 32.7142 183.42 32.7497 183.509 32.7497H184.573C184.771 32.7504 184.966 32.8031 185.137 32.9024C185.309 33.0018 185.451 33.1445 185.55 33.3161Z" fill="white"/>
</g>
<defs>
<clipPath id="clip0_297_23196">
<rect width="186" height="35" fill="white"/>
</clipPath>
</defs>
</svg>
